<svg data-v-fde0c5aa="" xmlns="http://www.w3.org/2000/svg" viewBox="0 0 300 300" class="iconAboveSlogan"><!----><defs data-v-fde0c5aa=""><linearGradient data-v-fde0c5aa="" gradientTransform="rotate(25)" id="2ec9a624-63e7-4ddd-803a-22eb62d07486" x1="0%" y1="0%" x2="100%" y2="0%"><stop data-v-fde0c5aa="" offset="0%" stop-color="#D418EA" stop-opacity="1"></stop><stop data-v-fde0c5aa="" offset="100%" stop-color="#ECD062" stop-opacity="1"></stop></linearGradient></defs><rect data-v-fde0c5aa="" fill="url(#2ec9a624-63e7-4ddd-803a-22eb62d07486)" x="0" y="0" width="300px" height="300px" class="logo-background-square"></rect><defs data-v-fde0c5aa=""><!----></defs><g data-v-fde0c5aa="" id="8518da45-bb03-409c-b5c7-f9561b60cfab" fill="#ffffff" transform="matrix(5.183413028717041,0,0,5.183413028717041,16.37161089604851,161.62527568513653)"><path d="M7.77 8.48C7.64 8.54 7.55 8.57 7.45 8.57C7.17 8.57 7.03 8.37 7.03 7.97L7.03 3.78C7.03 3.22 5.39 3.22 5.39 3.78L5.39 7.64C4.79 8.34 4.19 8.61 3.63 8.61C2.79 8.61 2.32 8.15 2.32 7.13L2.32 3.54C2.32 2.88 0.70 3.58 0.70 4.24L0.70 7.70C0.70 9.16 1.55 10.04 2.95 10.04C3.91 10.04 4.79 9.70 5.47 9.00C5.66 9.76 6.12 10.04 6.68 10.04C7.03 10.04 7.39 9.94 7.77 9.80C8.36 9.53 8.33 8.22 7.77 8.48ZM15.78 8.48C15.67 8.53 15.57 8.54 15.47 8.54C15.20 8.54 15.06 8.33 15.06 7.76L15.06 6.03C15.06 4.05 13.97 3.37 12.26 3.37C10.85 3.37 10.02 3.65 9.44 4.14C8.97 4.51 9.07 5.56 9.55 5.26C10.12 4.93 10.89 4.69 11.76 4.69C12.94 4.69 13.43 5.08 13.43 6.24L13.43 6.31C12.99 6.09 12.35 5.95 11.45 5.95C9.95 5.95 8.99 6.76 8.99 8.01C8.99 9.25 9.90 10.05 11.30 10.05C12.38 10.05 13.13 9.66 13.59 9.24C13.82 9.81 14.24 10.02 14.73 10.02C15.06 10.02 15.43 9.93 15.78 9.79C16.38 9.53 16.38 8.26 15.78 8.48ZM11.75 8.75C10.93 8.75 10.64 8.37 10.64 7.97C10.64 7.55 10.96 7.15 11.83 7.15C12.64 7.15 13.17 7.29 13.43 7.48L13.43 8.04C13.17 8.34 12.61 8.75 11.75 8.75ZM24.29 8.57C24.16 8.62 24.07 8.64 23.97 8.64C23.69 8.64 23.55 8.44 23.55 8.04L23.55 7.52L23.55 5.73C23.55 4.26 22.69 3.37 21.29 3.37C20.36 3.37 19.49 3.71 18.80 4.38L18.58 3.67C18.44 3.29 17.21 3.25 17.21 3.78L17.21 9.63C17.21 10.19 18.84 10.19 18.84 9.63L18.84 5.77C19.45 5.08 20.05 4.82 20.61 4.82C21.45 4.82 21.91 5.26 21.91 6.30L21.91 7.20L21.91 8.29C21.91 9.65 22.47 10.11 23.20 10.11C23.55 10.11 23.91 10.01 24.29 9.87C24.88 9.62 24.85 8.29 24.29 8.57ZM28.85 8.48C28.59 8.57 28.36 8.62 28.20 8.62C27.82 8.62 27.66 8.36 27.66 7.76L27.66 0.71C27.66 0.04 26.03 0.74 26.03 1.41L26.03 8.15C26.03 9.56 26.71 10.05 27.58 10.05C27.99 10.05 28.42 9.94 28.85 9.79C29.46 9.52 29.44 8.26 28.85 8.48ZM33.38 10.05C35.46 10.05 36.68 8.82 36.68 6.72C36.68 4.61 35.46 3.36 33.38 3.36C31.29 3.36 30.07 4.61 30.07 6.72C30.07 8.82 31.29 10.05 33.38 10.05ZM33.38 8.82C32.33 8.82 31.71 8.06 31.71 6.72C31.71 5.35 32.33 4.59 33.38 4.59C34.43 4.59 35.04 5.35 35.04 6.72C35.04 8.06 34.43 8.82 33.38 8.82ZM37.13 3.78C37.93 6.10 39.55 9.39 40.10 9.87C40.36 10.09 40.87 10.09 41.15 9.87C41.69 9.39 43.32 6.10 44.11 3.78C44.30 3.26 42.52 3.29 42.36 3.78C41.90 5.29 41.36 6.62 40.63 8.02C39.87 6.62 39.34 5.29 38.86 3.78C38.72 3.29 36.95 3.26 37.13 3.78ZM50.86 6.23C50.86 4.38 49.84 3.37 47.80 3.37C45.67 3.37 44.56 4.66 44.56 6.66C44.56 9.04 46.28 10.04 48.01 10.04C48.79 10.04 49.53 9.83 50.18 9.42C50.57 9.17 50.57 8.02 50.05 8.25C49.34 8.57 48.72 8.75 48.13 8.75C47.15 8.75 46.24 8.27 46.21 7.28C46.59 7.34 47.01 7.36 47.39 7.36C49.15 7.36 50.86 6.89 50.86 6.23ZM46.24 6.10C46.26 5.03 46.97 4.62 47.87 4.62C48.85 4.62 49.36 5.08 49.36 5.77C49.36 5.98 48.45 6.16 47.29 6.16C46.96 6.16 46.61 6.15 46.24 6.10Z"></path></g><defs data-v-fde0c5aa=""><!----></defs><g data-v-fde0c5aa="" id="b6c5f3fa-4938-440e-ab2d-d5871c6b59dd" stroke="none" fill="#ffffff" transform="matrix(0.8066145181655884,0,0,0.8066145181655884,110.50644730336917,67.60049007861042)"><path d="M27.984 42.838C45.23 25.729 47.746 11.361 41.939 4.395c0 0 43.898 18.04 18.077 59.882-4.42 7.105-15.459 15.498-9.688 32.793-.001 0-55.236-15.465-22.344-54.232z"></path><path d="M54.645 96.217c-.944-3.51-5.154-11.154 7.686-26.359 6.861-8.104 11.557-25.906 9.27-30.157 0 0 21.914 28.944-3.447 46.278-15.037 10.304-13.509 10.238-13.509 10.238z"></path></g><defs data-v-fde0c5aa=""><!----></defs><g data-v-fde0c5aa="" id="e3b24042-0ed5-4e27-a777-4c3cc6683045" fill="#ffffff" transform="matrix(0.4730254113674164,0,0,0.4730254113674164,52.400664669464184,221.34279548616587)"><path d="M7.10 15.68L6.38 13.24L2.18 13.24L1.47 15.68L0.21 15.68L3.18 5.88L5.39 5.88L8.36 15.68L7.10 15.68ZM4.37 6.38L4.20 6.38L2.51 12.15L6.06 12.15L4.37 6.38ZM16.79 15.68L16.79 5.88L17.96 5.88L17.96 14.59L23.09 14.59L23.09 15.68L16.79 15.68ZM32.45 15.68L32.45 5.88L38.39 5.88L38.39 6.97L33.63 6.97L33.63 10.22L38.30 10.22L38.30 11.31L33.63 11.31L33.63 14.59L38.47 14.59L38.47 15.68L32.45 15.68ZM50.08 5.88L52.91 15.18L53.07 15.18L53.07 5.88L54.25 5.88L54.25 15.68L51.90 15.68L49.07 6.38L48.90 6.38L48.90 15.68L47.73 15.68L47.73 5.88L50.08 5.88ZM63.11 6.97L63.11 5.88L70 5.88L70 6.97L67.14 6.97L67.14 15.68L65.97 15.68L65.97 6.97L63.11 6.97ZM84.94 15.68L84.22 13.24L80.02 13.24L79.31 15.68L78.05 15.68L81.02 5.88L83.23 5.88L86.20 15.68L84.94 15.68ZM82.21 6.38L82.04 6.38L80.35 12.15L83.90 12.15L82.21 6.38ZM96.78 5.88L99.61 15.18L99.78 15.18L99.78 5.88L100.95 5.88L100.95 15.68L98.60 15.68L95.77 6.38L95.61 6.38L95.61 15.68L94.43 15.68L94.43 5.88L96.78 5.88ZM110.00 6.97L110.00 5.88L113.22 5.88L113.22 5.88Q115.04 5.88 115.88 6.75L115.88 6.75L115.88 6.75Q116.72 7.62 116.72 9.52L116.72 9.52L116.72 12.04L116.72 12.04Q116.72 13.94 115.88 14.81L115.88 14.81L115.88 14.81Q115.04 15.68 113.22 15.68L113.22 15.68L110.00 15.68L110.00 14.57L110.84 14.57L110.84 6.97L110.00 6.97ZM112.01 14.59L113.05 14.59L113.05 14.59Q113.69 14.59 114.16 14.46L114.16 14.46L114.16 14.46Q114.63 14.34 114.94 14.04L114.94 14.04L114.94 14.04Q115.25 13.73 115.39 13.23L115.39 13.23L115.39 13.23Q115.54 12.73 115.54 11.96L115.54 11.96L115.54 9.60L115.54 9.60Q115.54 8.83 115.39 8.33L115.39 8.33L115.39 8.33Q115.25 7.83 114.94 7.53L114.94 7.53L114.94 7.53Q114.63 7.22 114.16 7.10L114.16 7.10L114.16 7.10Q113.69 6.97 113.05 6.97L113.05 6.97L112.01 6.97L112.01 14.59ZM125.38 11.87L125.38 9.69L125.38 9.69Q125.38 7.78 126.29 6.73L126.29 6.73L126.29 6.73Q127.20 5.68 128.83 5.68L128.83 5.68L128.83 5.68Q130.45 5.68 131.36 6.73L131.36 6.73L131.36 6.73Q132.27 7.78 132.27 9.69L132.27 9.69L132.27 11.87L132.27 11.87Q132.27 13.83 131.36 14.85L131.36 14.85L131.36 14.85Q130.45 15.88 128.83 15.88L128.83 15.88L128.83 15.88Q127.20 15.88 126.29 14.85L126.29 14.85L126.29 14.85Q125.38 13.83 125.38 11.87L125.38 11.87ZM128.83 14.78L128.83 14.78L128.83 14.78Q129.96 14.78 130.53 14.01L130.53 14.01L130.53 14.01Q131.10 13.23 131.10 11.79L131.10 11.79L131.10 9.77L131.10 9.77Q131.10 8.43 130.53 7.60L130.53 7.60L130.53 7.60Q129.96 6.78 128.83 6.78L128.83 6.78L128.83 6.78Q127.69 6.78 127.13 7.60L127.13 7.60L127.13 7.60Q126.56 8.43 126.56 9.77L126.56 9.77L126.56 11.79L126.56 11.79Q126.56 13.23 127.13 14.01L127.13 14.01L127.13 14.01Q127.69 14.78 128.83 14.78ZM156.90 15.68L156.90 5.88L158.07 5.88L158.07 14.59L163.20 14.59L163.20 15.68L156.90 15.68ZM178.35 15.68L177.63 13.24L173.43 13.24L172.72 15.68L171.46 15.68L174.43 5.88L176.64 5.88L179.61 15.68L178.35 15.68ZM175.62 6.38L175.45 6.38L173.75 12.15L177.31 12.15L175.62 6.38ZM203.71 15.68L203.71 5.88L209.73 5.88L209.73 6.97L204.89 6.97L204.89 10.22L209.65 10.22L209.65 11.31L204.89 11.31L204.89 15.68L203.71 15.68ZM219.17 15.68L219.17 5.88L220.35 5.88L220.35 14.59L225.47 14.59L225.47 15.68L219.17 15.68ZM240.62 15.68L239.90 13.24L235.70 13.24L234.99 15.68L233.73 15.68L236.70 5.88L238.91 5.88L241.88 15.68L240.62 15.68ZM237.89 6.38L237.72 6.38L236.03 12.15L239.58 12.15L237.89 6.38ZM249.73 15.68L249.73 5.88L251.97 5.88L253.29 15.18L253.46 15.18L254.77 5.88L257.01 5.88L257.01 15.68L255.92 15.68L255.92 6.38L255.75 6.38L254.44 15.68L252.31 15.68L250.99 6.38L250.82 6.38L250.82 15.68L249.73 15.68ZM271.75 15.68L271.04 13.24L266.84 13.24L266.13 15.68L264.87 15.68L267.83 5.88L270.05 5.88L273.01 15.68L271.75 15.68ZM269.02 6.38L268.86 6.38L267.16 12.15L270.72 12.15L269.02 6.38ZM296.81 6.97L296.81 5.88L300.03 5.88L300.03 5.88Q301.85 5.88 302.69 6.75L302.69 6.75L302.69 6.75Q303.53 7.62 303.53 9.52L303.53 9.52L303.53 12.04L303.53 12.04Q303.53 13.94 302.69 14.81L302.69 14.81L302.69 14.81Q301.85 15.68 300.03 15.68L300.03 15.68L296.81 15.68L296.81 14.57L297.65 14.57L297.65 6.97L296.81 6.97ZM298.83 14.59L299.87 14.59L299.87 14.59Q300.51 14.59 300.98 14.46L300.98 14.46L300.98 14.46Q301.45 14.34 301.76 14.04L301.76 14.04L301.76 14.04Q302.06 13.73 302.21 13.23L302.21 13.23L302.21 13.23Q302.36 12.73 302.36 11.96L302.36 11.96L302.36 9.60L302.36 9.60Q302.36 8.83 302.21 8.33L302.21 8.33L302.21 8.33Q302.06 7.83 301.76 7.53L301.76 7.53L301.76 7.53Q301.45 7.22 300.98 7.10L300.98 7.10L300.98 7.10Q300.51 6.97 299.87 6.97L299.87 6.97L298.83 6.97L298.83 14.59ZM312.68 15.68L312.68 5.88L318.61 5.88L318.61 6.97L313.85 6.97L313.85 10.22L318.53 10.22L318.53 11.31L313.85 11.31L313.85 14.59L318.70 14.59L318.70 15.68L312.68 15.68ZM328.15 15.68L328.15 5.88L329.32 5.88L329.32 14.59L334.45 14.59L334.45 15.68L328.15 15.68ZM365.16 15.68L364.45 13.24L360.25 13.24L359.53 15.68L358.27 15.68L361.24 5.88L363.45 5.88L366.42 15.68L365.16 15.68ZM362.43 6.38L362.26 6.38L360.57 12.15L364.13 12.15L362.43 6.38ZM374.28 15.68L374.28 5.88L376.52 5.88L377.83 15.18L378.00 15.18L379.32 5.88L381.56 5.88L381.56 15.68L380.46 15.68L380.46 6.38L380.30 6.38L378.98 15.68L376.85 15.68L375.54 6.38L375.37 6.38L375.37 15.68L374.28 15.68ZM390.04 11.87L390.04 9.69L390.04 9.69Q390.04 7.78 390.95 6.73L390.95 6.73L390.95 6.73Q391.86 5.68 393.48 5.68L393.48 5.68L393.48 5.68Q395.11 5.68 396.02 6.73L396.02 6.73L396.02 6.73Q396.93 7.78 396.93 9.69L396.93 9.69L396.93 11.87L396.93 11.87Q396.93 13.83 396.02 14.85L396.02 14.85L396.02 14.85Q395.11 15.88 393.48 15.88L393.48 15.88L393.48 15.88Q391.86 15.88 390.95 14.85L390.95 14.85L390.95 14.85Q390.04 13.83 390.04 11.87L390.04 11.87ZM393.48 14.78L393.48 14.78L393.48 14.78Q394.62 14.78 395.18 14.01L395.18 14.01L395.18 14.01Q395.75 13.23 395.75 11.79L395.75 11.79L395.75 9.77L395.75 9.77Q395.75 8.43 395.18 7.60L395.18 7.60L395.18 7.60Q394.62 6.78 393.48 6.78L393.48 6.78L393.48 6.78Q392.35 6.78 391.78 7.60L391.78 7.60L391.78 7.60Q391.22 8.43 391.22 9.77L391.22 9.77L391.22 11.79L391.22 11.79Q391.22 13.23 391.78 14.01L391.78 14.01L391.78 14.01Q392.35 14.78 393.48 14.78ZM412.12 12.15L412.12 15.68L410.94 15.68L410.94 12.40L410.94 12.40Q410.94 12.04 410.77 11.84L410.77 11.84L410.77 11.84Q410.61 11.65 410.19 11.65L410.19 11.65L407.13 11.65L407.13 15.68L405.96 15.68L405.96 5.88L409.46 5.88L409.46 5.88Q410.21 5.88 410.77 6.10L410.77 6.10L410.77 6.10Q411.33 6.31 411.70 6.68L411.70 6.68L411.70 6.68Q412.08 7.04 412.26 7.53L412.26 7.53L412.26 7.53Q412.45 8.01 412.45 8.54L412.45 8.54L412.45 8.96L412.45 8.96Q412.45 9.51 412.15 10.05L412.15 10.05L412.15 10.05Q411.85 10.60 411.22 10.89L411.22 10.89L411.22 11.06L411.22 11.06Q411.64 11.13 411.88 11.40L411.88 11.40L411.88 11.40Q412.12 11.66 412.12 12.15L412.12 12.15ZM407.13 6.97L407.13 10.56L409.32 10.56L409.32 10.56Q410.31 10.56 410.79 10.13L410.79 10.13L410.79 10.13Q411.28 9.70 411.28 8.88L411.28 8.88L411.28 8.62L411.28 8.62Q411.28 7.88 410.79 7.43L410.79 7.43L410.79 7.43Q410.31 6.97 409.32 6.97L409.32 6.97L407.13 6.97Z"></path></g></svg>